<svg xmlns="http://www.w3.org/2000/svg" viewBox="0 0 1000 600">
  <g transform="matrix(2.25 0 0 2.25 0 -250)">
    <rect width="333.333" height="333.333" x="55.556" y="77.778" fill="#003530" rx="13.333" ry="13.333"/>
    <path fill="#f1f1f1" d="M97.675 319.002q-2.719 0-5.564-.917-2.846-.917-4.68-4.332-1.802-3.415-1.802-10.466 0-5.691 1.011-14.45 1.044-8.758 2.625-18.781 1.58-10.245 2.624-21.628 1.012-11.382 1.012-22.987 0-4.553-.221-9.801-.222-5.217-.917-10.245-1.581.917-3.067 1.486-1.486.57-2.846.57-3.858 0-3.858-7.526 0-6.83 3.068-11.478 3.067-4.68 11.256-9.011 7.968-4.3 18.781-7.146 10.814-2.846 21.976-2.846 22.07 0 35.413 11.605 13.311 11.604 13.311 30.954 0 11.826-4.774 21.85-4.806 10.022-12.648 17.421-7.841 7.399-17.074 11.383-9.233 3.984-18.086 3.984-8.442 0-11.383-3.763-2.972-3.762-2.972-10.813 0-3.415.79-6.261.791-2.846 3.542-2.846.664 0 2.055.222 1.36.253 2.72.695 1.359.222 3.857.696 2.53.443 5.691.443 12.521 0 20.394-7.051 7.842-7.051 7.842-18.213 0-11.604-8.632-18.212-8.664-6.609-22.323-6.609-4.996 0-10.245.79-5.248.791-10.465 2.182-.696 15.02-3.194 34.149-1.36 11.383-2.403 22.418-1.012 11.035-1.012 20.14 0 7.969 1.486 14.008 1.486 6.04 6.04 10.34 3.161 3.193 3.161 6.83 0 5.026-5.69 9.105-5.692 4.11-14.799 4.11Zm123.63-61.467q-6.387 0-10.37-4.11-3.985-4.08-3.985-10.467 0-6.608 4.459-10.908 4.426-4.332 11.035-4.332 6.387 0 10.244 3.858 3.858 3.889 3.858 10.244 0 6.83-4.206 11.288-4.205 4.427-11.035 4.427Zm-3.857 61.245q-6.387 0-10.371-4.11-3.984-4.079-3.984-10.466 0-6.608 4.332-10.94 4.331-4.3 11.161-4.3 6.355 0 10.245 3.857 3.857 3.858 3.857 10.245 0 6.83-4.332 11.256-4.331 4.458-10.908 4.458Zm81.26.664q-18.908 0-27.097-8.98-8.19-8.98-8.19-23.777 0-3.889.696-9.359.664-5.438 1.803-13.185 1.833-11.161 2.75-19.92.886-8.758.886-19.256 0-12.047-.664-19.572-3.89 2.277-5.692 2.277-3.636 0-3.636-8.19 0-6.387 2.846-10.813 2.846-4.427 9.422-8.316 6.609-4.079 16.758-7.051 10.118-2.972 21.722-2.972 18.909 0 28.679 8.663 9.802 8.664 9.802 22.766 0 9.106-3.858 16.853-3.889 7.746-10.94 13.66 28.457 4.552 28.457 32.788 0 15.24-8.664 27.761-8.632 12.521-23.43 19.572-14.354 7.051-31.65 7.051Zm9.107-25.263q10.244 0 18.56-2.846 8.316-2.845 13.311-8.316 4.996-5.438 4.996-12.742 0-9.328-6.577-13.185-6.608-3.89-15.271-3.89-3.637 0-9.107.696-2.276.443-5.217.443-5.027 0-8.316-4.079-3.32-4.11-3.32-10.244 0-4.332 3.89-5.47 27.76-7.304 27.76-25.264 0-14.355-19.793-14.355-7.303 0-17.99 2.498 0 11.162-1.139 23.335-1.138 12.173-3.415 25.39-1.36 9.106-2.15 15.367-.822 6.26-.822 10.118 0 12.3 6.166 17.422 6.134 5.122 18.434 5.122Z"/>
  </g>
</svg>
